<svg width="20" height="12" viewBox="0 0 20 12" fill="none" xmlns="http://www.w3.org/2000/svg">
<path fill-rule="evenodd" clip-rule="evenodd" d="M10.8669 9.50974C9.77715 11.0183 8.00322 12 6 12C2.68629 12 0 9.31371 0 6C0 2.68629 2.68629 0 6 0C9.31371 0 12 2.68629 12 6C12 6.58975 11.9149 7.15963 11.7563 7.69802L18.8162 10.0513C19.3402 10.226 19.6233 10.7923 19.4487 11.3162C19.274 11.8402 18.7077 12.1233 18.1838 11.9487L10.8669 9.50974ZM10 6C10 8.20914 8.20914 10 6 10C3.79086 10 2 8.20914 2 6C2 3.79086 3.79086 2 6 2C8.20914 2 10 3.79086 10 6Z" fill="#131111"/>
</svg>
