<svg width="22" height="18" viewBox="0 0 22 18" fill="none" xmlns="http://www.w3.org/2000/svg">
<path fill-rule="evenodd" clip-rule="evenodd" d="M12.4334 2C12.4334 0.89543 11.5379 0 10.4334 0C9.32879 0 8.43336 0.89543 8.43336 2V2.31694C8.11848 2.41984 7.8143 2.54637 7.5229 2.69444L7.02255 2.19409C6.2415 1.41304 4.97517 1.41304 4.19412 2.19409C3.41307 2.97514 3.41307 4.24147 4.19412 5.02252L4.69446 5.52286C4.54638 5.81427 4.41984 6.11847 4.31694 6.43336H4C2.89543 6.43336 2 7.32879 2 8.43336C2 9.53793 2.89543 10.4334 4 10.4334H4.31694C4.39887 10.6841 4.49579 10.928 4.60664 11.1641L4.19412 11.5767C3.41307 12.3577 3.41307 13.624 4.19412 14.4051C4.97517 15.1861 6.2415 15.1861 7.02255 14.4051L7.34778 14.0798C7.69176 14.2682 8.05483 14.4261 8.43336 14.5498V15.2688C8.43336 16.3734 9.32879 17.2688 10.4334 17.2688C11.5379 17.2688 12.4334 16.3734 12.4334 15.2688V14.5498C12.7482 14.4469 13.0524 14.3203 13.3438 14.1722L13.5766 14.405C14.3576 15.186 15.624 15.186 16.405 14.405C17.186 13.6239 17.186 12.3576 16.405 11.5765L16.1723 11.3438C16.3203 11.0524 16.4469 10.7482 16.5498 10.4334H17.2688C18.3734 10.4334 19.2688 9.53793 19.2688 8.43336C19.2688 7.32879 18.3734 6.43336 17.2688 6.43336H16.5498C16.4261 6.05484 16.2682 5.69177 16.0798 5.34779L16.405 5.02263C17.186 4.24158 17.186 2.97525 16.405 2.1942C15.624 1.41315 14.3576 1.41315 13.5766 2.1942L13.1641 2.60665C12.928 2.4958 12.6841 2.39888 12.4334 2.31695V2ZM10.4334 11.65C12.2099 11.65 13.65 10.2098 13.65 8.43332C13.65 6.65679 12.2099 5.21664 10.4334 5.21664C8.65683 5.21664 7.21667 6.65679 7.21667 8.43332C7.21667 10.2098 8.65683 11.65 10.4334 11.65Z" fill="black"/>
</svg>
